<svg width="90" height="27" viewBox="0 0 90 27" fill="none" xmlns="http://www.w3.org/2000/svg">
<path d="M2.16 6.45H7.29V8.637C7.596 7.971 8.163 7.395 8.991 6.909C9.819 6.405 10.836 6.153 12.042 6.153C13.356 6.153 14.544 6.477 15.606 7.125C16.668 7.755 17.496 8.646 18.09 9.798C18.702 10.932 19.008 12.228 19.008 13.686V24H13.77V14.118C13.77 13.146 13.473 12.363 12.879 11.769C12.303 11.157 11.538 10.851 10.584 10.851C9.648 10.851 8.883 11.157 8.289 11.769C7.713 12.363 7.425 13.146 7.425 14.118V24H2.16V6.45ZM30.9061 24.297C29.1061 24.297 27.5041 23.919 26.1001 23.163C24.7141 22.389 23.6341 21.318 22.8601 19.95C22.0861 18.564 21.6991 16.98 21.6991 15.198C21.6991 13.416 22.0861 11.841 22.8601 10.473C23.6341 9.105 24.7141 8.043 26.1001 7.287C27.5041 6.513 29.1061 6.126 30.9061 6.126C32.7061 6.126 34.2991 6.513 35.6851 7.287C37.0891 8.043 38.1781 9.105 38.9521 10.473C39.7261 11.841 40.1131 13.416 40.1131 15.198C40.1131 16.98 39.7261 18.564 38.9521 19.95C38.1781 21.318 37.0891 22.389 35.6851 23.163C34.2991 23.919 32.7061 24.297 30.9061 24.297ZM26.9101 15.198C26.9101 16.458 27.2791 17.484 28.0171 18.276C28.7551 19.05 29.7181 19.437 30.9061 19.437C32.0941 19.437 33.0571 19.05 33.7951 18.276C34.5331 17.484 34.9021 16.458 34.9021 15.198C34.9021 13.956 34.5241 12.948 33.7681 12.174C33.0301 11.4 32.0761 11.013 30.9061 11.013C29.7361 11.013 28.7731 11.4 28.0171 12.174C27.2791 12.948 26.9101 13.956 26.9101 15.198ZM40.6382 6.45H46.0382L50.1152 17.25L54.1922 6.45H59.5652L52.7342 24H47.4692L40.6382 6.45ZM68.692 24.297C67.162 24.297 65.776 23.919 64.534 23.163C63.31 22.389 62.338 21.309 61.618 19.923C60.898 18.537 60.538 16.962 60.538 15.198C60.538 13.434 60.898 11.868 61.618 10.5C62.338 9.132 63.31 8.07 64.534 7.314C65.776 6.54 67.162 6.153 68.692 6.153C69.754 6.153 70.726 6.342 71.608 6.72C72.49 7.098 73.255 7.638 73.903 8.34V6.45H78.898V24H73.903V22.083C73.255 22.803 72.49 23.352 71.608 23.73C70.726 24.108 69.754 24.297 68.692 24.297ZM65.695 15.225C65.695 16.467 66.055 17.475 66.775 18.249C67.513 19.005 68.467 19.383 69.637 19.383C70.789 19.383 71.734 19.005 72.472 18.249C73.21 17.475 73.579 16.467 73.579 15.225C73.579 14.001 73.21 13.011 72.472 12.255C71.734 11.481 70.789 11.094 69.637 11.094C68.467 11.094 67.513 11.472 66.775 12.228C66.055 12.984 65.695 13.983 65.695 15.225Z" fill="#E4E7EC"/>
<circle cx="87" cy="21" r="3" fill="#5A20D5"/>
</svg>
